[Header]
FileType HTR
DataType HTRS
FileVersion 1
NumSegments 64
NumFrames 3
DataFrameRate 24
EulerRotationOrder ZYX
CalibrationUnits mm
RotationUnits Degrees
GlobalAxisofGravity Y
BoneLengthAxis Y
ScaleFactor 1.0
[SegmentNames&Hierarchy]
Hips	GLOBAL
Spine	Hips
Spine1	Spine
Spine2	Spine1
Neck	Spine2
Head	Neck
LeftEye	Head
RightEye	Head
LeftShoulder	Spine2
LeftArm	LeftShoulder
LeftForeArm	LeftArm
LeftHand	LeftForeArm
LeftHandThumb1	LeftHand
LeftHandThumb2	LeftHandThumb1
LeftHandThumb3	LeftHandThumb2
LeftHandThumb4	LeftHandThumb3
LeftHandIndex1	LeftHand
LeftHandIndex2	LeftHandIndex1
LeftHandIndex3	LeftHandIndex2
LeftHandIndex4	LeftHandIndex3
LeftHandMiddle1	LeftHand
LeftHandMiddle2	LeftHandMiddle1
LeftHandMiddle3	LeftHandMiddle2
LeftHandMiddle4	LeftHandMiddle3
LeftHandRing1	LeftHand
LeftHandRing2	LeftHandRing1
LeftHandRing3	LeftHandRing2
LeftHandRing4	LeftHandRing3
LeftHandPinky1	LeftHand
LeftHandPinky2	LeftHandPinky1
LeftHandPinky3	LeftHandPinky2
LeftHandPinky4	LeftHandPinky3
RightShoulder	Spine2
RightArm	RightShoulder
RightForeArm	RightArm
RightHand	RightForeArm
RightHandPinky1	RightHand
RightHandPinky2	RightHandPinky1
RightHandPinky3	RightHandPinky2
RightHandPinky4	RightHandPinky3
RightHandRing1	RightHand
RightHandRing2	RightHandRing1
RightHandRing3	RightHandRing2
RightHandRing4	RightHandRing3
RightHandMiddle1	RightHand
RightHandMiddle2	RightHandMiddle1
RightHandMiddle3	RightHandMiddle2
RightHandMiddle4	RightHandMiddle3
RightHandIndex1	RightHand
RightHandIndex2	RightHandIndex1
RightHandIndex3	RightHandIndex2
RightHandIndex4	RightHandIndex3
RightHandThumb1	RightHand
RightHandThumb2	RightHandThumb1
RightHandThumb3	RightHandThumb2
RightHandThumb4	RightHandThumb3
LeftUpLeg	Hips
LeftLeg	LeftUpLeg
LeftFoot	LeftLeg
LeftToeBase	LeftFoot
RightUpLeg	Hips
RightLeg	RightUpLeg
RightFoot	RightLeg
RightToeBase	RightFoot
[BasePosition]
Hips	0	0	0	0	0	0	1
Spine	0	0	0	0	0	0	1
Spine1	0	0	0	0	0	0	1
Spine2	0	0	0	0	0	0	1
Neck	0	0	0	0	0	0	1
Head	0	0	0	0	0	0	1
LeftEye	0	0	0	0	0	0	1
RightEye	0	0	0	0	0	0	1
LeftShoulder	0	0	0	0	0	0	1
LeftArm	0	0	0	0	0	0	1
LeftForeArm	0	0	0	0	0	0	1
LeftHand	0	0	0	0	0	0	1
LeftHandThumb1	0	0	0	0	0	0	1
LeftHandThumb2	0	0	0	0	0	0	1
LeftHandThumb3	0	0	0	0	0	0	1
LeftHandThumb4	0	0	0	0	0	0	1
LeftHandIndex1	0	0	0	0	0	0	1
LeftHandIndex2	0	0	0	0	0	0	1
LeftHandIndex3	0	0	0	0	0	0	1
LeftHandIndex4	0	0	0	0	0	0	1
LeftHandMiddle1	0	0	0	0	0	0	1
LeftHandMiddle2	0	0	0	0	0	0	1
LeftHandMiddle3	0	0	0	0	0	0	1
LeftHandMiddle4	0	0	0	0	0	0	1
LeftHandRing1	0	0	0	0	0	0	1
LeftHandRing2	0	0	0	0	0	0	1
LeftHandRing3	0	0	0	0	0	0	1
LeftHandRing4	0	0	0	0	0	0	1
LeftHandPinky1	0	0	0	0	0	0	1
LeftHandPinky2	0	0	0	0	0	0	1
LeftHandPinky3	0	0	0	0	0	0	1
LeftHandPinky4	0	0	0	0	0	0	1
RightShoulder	0	0	0	0	0	0	1
RightArm	0	0	0	0	0	0	1
RightForeArm	0	0	0	0	0	0	1
RightHand	0	0	0	0	0	0	1
RightHandPinky1	0	0	0	0	0	0	1
RightHandPinky2	0	0	0	0	0	0	1
RightHandPinky3	0	0	0	0	0	0	1
RightHandPinky4	0	0	0	0	0	0	1
RightHandRing1	0	0	0	0	0	0	1
RightHandRing2	0	0	0	0	0	0	1
RightHandRing3	0	0	0	0	0	0	1
RightHandRing4	0	0	0	0	0	0	1
RightHandMiddle1	0	0	0	0	0	0	1
RightHandMiddle2	0	0	0	0	0	0	1
RightHandMiddle3	0	0	0	0	0	0	1
RightHandMiddle4	0	0	0	0	0	0	1
RightHandIndex1	0	0	0	0	0	0	1
RightHandIndex2	0	0	0	0	0	0	1
RightHandIndex3	0	0	0	0	0	0	1
RightHandIndex4	0	0	0	0	0	0	1
RightHandThumb1	0	0	0	0	0	0	1
RightHandThumb2	0	0	0	0	0	0	1
RightHandThumb3	0	0	0	0	0	0	1
RightHandThumb4	0	0	0	0	0	0	1
LeftUpLeg	0	0	0	0	0	0	1
LeftLeg	0	0	0	0	0	0	1
LeftFoot	0	0	0	0	0	0	1
LeftToeBase	0	0	0	0	0	0	1
RightUpLeg	0	0	0	0	0	0	1
RightLeg	0	0	0	0	0	0	1
RightFoot	0	0	0	0	0	0	1
RightToeBase	0	0	0	0	0	0	1
[Hips]
3	-167.1657562	1023.908936	11.40876961	20.4763546	-82.31752777	-20.19839096	1.0
4	-249.6405334	1012.402588	16.01295853	26.16507339	-84.65837097	-25.32601929	1.0
5	-335.6959229	995.5969238	20.44433594	44.30007172	-86.36364746	-42.98557281	1.0
[Spine]
3	0	101.8159943	1.315000057	3.731553555	8.644762039	0.9644504786	1.0
4	0	101.8159943	1.315000057	3.680118561	10.32308388	1.308547735	1.0
5	0	101.8159943	1.315000057	3.532188892	11.66593266	1.55126071	1.0
[Spine1]
3	0	100.8349991	-10.00800037	1.353795767	15.87820053	-1.564879537	1.0
4	0	100.8349991	-10.00800037	1.18220377	16.40674782	-1.614904046	1.0
5	0	100.8349991	-10.00800037	0.9349392056	16.80514336	-1.628392816	1.0
[Spine2]
3	0	91	-13.73399925	1.105557203	15.8350296	-1.916211486	1.0
4	0	91	-13.73399925	0.9313420057	16.36622238	-1.972411156	1.0
5	0	91	-13.73399925	0.6808148026	16.76476288	-1.996596098	1.0
[Neck]
3	0	166.7169952	-25.16200066	4.759003639	5.100812435	0.7127274275	1.0
4	0	166.7169952	-25.16200066	4.412417889	4.96657896	0.3957773447	1.0
5	0	166.7169952	-25.16200066	3.896870852	4.905384541	0.2690656185	1.0
[Head]
3	0	96.17900085	16.84999847	-14.67796612	35.96213913	-8.187309265	1.0
4	0	96.17900085	16.84999847	-15.43284798	35.6830101	-9.2365942	1.0
5	0	96.17900085	16.84999847	-15.64240646	35.7213974	-9.621630669	1.0
[LeftEye]
3	30.6760006	64.09500122	92.83599854	0	0	0	1.0
4	30.6760006	64.09500122	92.83599854	0	0	0	1.0
5	30.6760006	64.09500122	92.83599854	0	0	0	1.0
[RightEye]
3	-30.6760006	64.09500122	92.83499908	0	0	0	1.0
4	-30.6760006	64.09500122	92.83499908	0	0	0	1.0
5	-30.6760006	64.09500122	92.83499908	0	0	0	1.0
[LeftShoulder]
3	45.70400238	109.4599991	-26.28000069	4.155462265	-2.840782642	-10.31833839	1.0
4	45.70400238	109.4599991	-26.28000069	4.010381699	-0.4434203804	-11.85175037	1.0
5	45.70400238	109.4599991	-26.28000069	3.731315374	2.346654654	-12.30281448	1.0
[LeftArm]
3	105.923996	-5.24600029	-22.32099915	14.25239182	-9.844273567	-64.95417023	1.0
4	105.923996	-5.24600029	-22.32099915	12.7919426	-2.987821817	-63.73465347	1.0
5	105.923996	-5.24600029	-22.32099915	15.38236237	4.548389435	-62.98890305	1.0
[LeftForeArm]
3	278.414978	-0.0009999999311	0	3.824259238e-06	-13.73450184	-0.0002084279113	1.0
4	278.414978	-0.0009999999311	0	1.673461338e-05	-15.08520508	-0.0002226629294	1.0
5	278.414978	-0.0009999999311	0	8.824063116e-06	-17.70903397	-0.0002162844758	1.0
[LeftHand]
3	283.2879944	0	0	39.04893875	-22.5586586	11.51989174	1.0
4	283.2879944	0	0	48.19044495	-16.08022118	5.158787727	1.0
5	283.2879944	0	0	44.91115952	-10.05465698	2.980216742	1.0
[LeftHandThumb1]
3	24.6609993	-15.75	26.8239994	9.699949265	4.980071545	0.1147709116	1.0
4	24.6609993	-15.75	26.8239994	10.03839493	4.790574074	-0.3732341826	1.0
5	24.6609993	-15.75	26.8239994	10.21936607	4.276679993	-0.9260911942	1.0
[LeftHandThumb2]
3	32.29800034	-18.64699936	18.64699936	3.392385244	12.59895992	12.51036739	1.0
4	32.29800034	-18.64699936	18.64699936	3.030901194	12.38726902	12.64226055	1.0
5	32.29800034	-18.64699936	18.64699936	2.589665651	12.79225922	12.61402321	1.0
[LeftHandThumb3]
3	26.52600098	-15.31499958	15.31499958	3.123060465	12.89263821	0.7774121165	1.0
4	26.52600098	-15.31499958	15.31499958	3.26813221	13.29472828	0.6736004949	1.0
5	26.52600098	-15.31499958	15.31499958	3.263185024	13.28135681	0.6756970882	1.0
[LeftHandThumb4]
3	19.54599953	-11.28499985	11.28499985	0	0	0	1.0
4	19.54599953	-11.28499985	11.28499985	0	0	0	1.0
5	19.54599953	-11.28499985	11.28499985	0	0	0	1.0
[LeftHandIndex1]
3	91.09299469	-5.170999527	22.60099792	0.7463507652	0.8259379864	3.037834167	1.0
4	91.09299469	-5.170999527	22.60099792	0.5435044169	1.067682266	-0.20962286	1.0
5	91.09299469	-5.170999527	22.60099792	0.2880265415	1.331370115	-3.534266233	1.0
[LeftHandIndex2]
3	36.76399994	0	0	-0.03729839996	1.124062657	-3.315127611	1.0
4	36.76399994	0	0	-0.07460004836	1.299696207	-5.078930855	1.0
5	36.76399994	0	0	-0.1133756563	1.454774141	-6.649341106	1.0
[LeftHandIndex3]
3	28.83100128	0	0	-0.01942316443	-0.2650559247	0.5262992978	1.0
4	28.83100128	0	0	-0.02590738796	0.06628478318	-2.768213749	1.0
5	28.83100128	0	0	-0.05181893706	0.3626441061	-5.727453232	1.0
[LeftHandIndex4]
3	23.92700005	0	0	0	0	0	1.0
4	23.92700005	0	0	0	0	0	1.0
5	23.92700005	0	0	0	0	0	1.0
[LeftHandMiddle1]
3	95.33399963	0	0	-0.4422398508	6.018878937	-6.585621834	1.0
4	95.33399963	0	0	-0.868154943	6.27483654	-10.46456528	1.0
5	95.33399963	0	0	-1.352972746	6.577920914	-14.59221077	1.0
[LeftHandMiddle2]
3	36.98199844	0	0	-0.075505279	1.344351053	-5.25410223	1.0
4	36.98199844	0	0	-0.1698817611	1.669872284	-8.596705437	1.0
5	36.98199844	0	0	-0.2766287625	1.960309267	-11.65115547	1.0
[LeftHandMiddle3]
3	29.50900078	0	0	0.004519927315	0.0525441207	2.25244689	1.0
4	29.50900078	0	0	-0.0009026519838	0.4398820996	-1.638888478	1.0
5	29.50900078	0	0	-0.03496544436	0.7942239642	-5.217530727	1.0
[LeftHandMiddle4]
3	28.3390007	0	0	0	0	0	1.0
4	28.3390007	0	0	0	0	0	1.0
5	28.3390007	0	0	0	0	0	1.0
[LeftHandRing1]
3	91.04499817	-0.4390000105	-18.65100098	-1.575610757	12.82097054	-14.77257252	1.0
4	91.04499817	-0.4390000105	-18.65100098	-2.157186747	13.11144638	-19.53130341	1.0
5	91.04499817	-0.4390000105	-18.65100098	-2.784296036	13.35249233	-24.38964081	1.0
[LeftHandRing2]
3	31.54000092	0	0	-0.009123613127	0.9814792871	-6.447370052	1.0
4	31.54000092	0	0	-0.05143602937	1.369899869	-10.38647652	1.0
5	31.54000092	0	0	-0.1191055551	1.72012639	-13.98608971	1.0
[LeftHandRing3]
3	29.37700081	0	0	0.04373207316	0.005173596554	-0.137239188	1.0
4	29.37700081	0	0	0.0695380792	0.4769362807	-4.882211208	1.0
5	29.37700081	0	0	0.04966474697	0.9129274487	-9.269603729	1.0
[LeftHandRing4]
3	26.47500038	0	0	0	0	0	1.0
4	26.47500038	0	0	0	0	0	1.0
5	26.47500038	0	0	0	0	0	1.0
[LeftHandPinky1]
3	80.77799988	-4.887000084	-38.06099701	-2.468161583	16.25439072	-20.52010345	1.0
4	80.77799988	-4.887000084	-38.06099701	-3.45138669	16.28224564	-26.14898872	1.0
5	80.77799988	-4.887000084	-38.06099701	-4.431578159	16.29673004	-31.7396946	1.0
[LeftHandPinky2]
3	36	0	0	-0.1297624558	0.759909153	-9.468937874	1.0
4	36	0	0	-0.2730863988	1.28348279	-14.89618206	1.0
5	36	0	0	-0.4590551257	1.746936321	-19.89736938	1.0
[LeftHandPinky3]
3	21.14200211	0	0	0.01287020277	0.4134944081	4.439707279	1.0
4	21.14200211	0	0	-0.01577889547	0.9426931739	-0.8446618319	1.0
5	21.14200211	0	0	-0.09789133072	1.430704713	-5.786423206	1.0
[LeftHandPinky4]
3	19.75699997	0	0	0	0	0	1.0
4	19.75699997	0	0	0	0	0	1.0
5	19.75699997	0	0	0	0	0	1.0
[RightShoulder]
3	-45.70000076	109.4620056	-26.28000069	7.186478138	20.551054	18.37038994	1.0
4	-45.70000076	109.4620056	-26.28000069	7.357325077	22.74188232	17.83134079	1.0
5	-45.70000076	109.4620056	-26.28000069	7.464060307	24.26374245	17.44532776	1.0
[RightArm]
3	-105.9280014	-5.248000145	-22.32099915	2.717767954	4.679467678	58.39756012	1.0
4	-105.9280014	-5.248000145	-22.32099915	9.452173233	9.098667145	53.448349	1.0
5	-105.9280014	-5.248000145	-22.32099915	13.51851368	12.57222939	48.12776947	1.0
[RightForeArm]
3	-278.414978	0	0	-3.907026894e-06	6.403153896	-8.341933608e-06	1.0
4	-278.414978	0	0	-1.015078652e-07	11.64203167	1.715288454e-05	1.0
5	-278.414978	0	0	1.65823576e-06	16.7154789	8.95588164e-06	1.0
[RightHand]
3	-283.2879944	0	0.0009999999311	22.73337746	-7.594013214	23.34349251	1.0
4	-283.2879944	0	0.0009999999311	18.38526726	-3.806359768	25.41774178	1.0
5	-283.2879944	0	0.0009999999311	16.29660225	-0.278418541	24.14237213	1.0
[RightHandPinky1]
3	-80.76699829	-4.885000229	-38.06000137	-7.439962864	-16.5234623	47.06065369	1.0
4	-80.76699829	-4.885000229	-38.06000137	-7.218310356	-16.41110229	46.27256012	1.0
5	-80.76699829	-4.885000229	-38.06000137	-7.086938858	-16.22061157	46.36064148	1.0
[RightHandPinky2]
3	-36	0	0.0009999999311	-1.019078255	-2.783024311	31.73269272	1.0
4	-36	0	0.0009999999311	-0.9882252812	-2.738306522	31.18853569	1.0
5	-36	0	0.0009999999311	-0.9450435042	-2.673512459	30.40876961	1.0
[RightHandPinky3]
3	-21.14200211	0	0	-0.6361220479	0.325587213	19.13266563	1.0
4	-21.14200211	0	0	-0.614144206	0.375520885	18.58897209	1.0
5	-21.14200211	0	0	-0.5838599801	0.4474147856	17.81155014	1.0
[RightHandPinky4]
3	-19.75699997	0	0	0	0	0	1.0
4	-19.75699997	0	0	0	0	0	1.0
5	-19.75699997	0	0	0	0	0	1.0
[RightHandRing1]
3	-91.03599548	-0.4390000105	-18.65100098	-5.091225147	-13.73167992	41.40084457	1.0
4	-91.03599548	-0.4390000105	-18.65100098	-4.968239307	-13.71304893	40.52838898	1.0
5	-91.03599548	-0.4390000105	-18.65100098	-4.97633934	-13.49126625	40.66630936	1.0
[RightHandRing2]
3	-31.54000092	0	0	-0.3772280216	-2.612935305	23.37912369	1.0
4	-31.54000092	0	0	-0.3594830334	-2.566578388	22.87812042	1.0
5	-31.54000092	0	0	-0.3386163116	-2.509821415	22.26776123	1.0
[RightHandRing3]
3	-29.37700081	0	0	-0.146942392	0.05071451515	18.21965981	1.0
4	-29.37700081	0	0	-0.1368063092	0.09705480933	17.74337196	1.0
5	-29.37700081	0	0	-0.1248089597	0.1554623544	17.14463043	1.0
[RightHandRing4]
3	-26.47500038	0	0	0	0	0	1.0
4	-26.47500038	0	0	0	0	0	1.0
5	-26.47500038	0	0	0	0	0	1.0
[RightHandMiddle1]
3	-95.32500458	0	0	-3.448136091	-7.946129799	31.00106812	1.0
4	-95.32500458	0	0	-3.364773035	-7.872354507	30.38764191	1.0
5	-95.32500458	0	0	-3.43276	-7.62058115	30.91443634	1.0
[RightHandMiddle2]
3	-36.98199844	0	0	-0.6661837101	-2.789347887	20.70740318	1.0
4	-36.98199844	0	0	-0.6360784769	-2.736517668	20.10687637	1.0
5	-36.98199844	0	0	-0.6019185781	-2.674395561	19.40673447	1.0
[RightHandMiddle3]
3	-29.50900078	0	0	-0.3401984572	-1.939012647	18.66269112	1.0
4	-29.50900078	0	0	-0.3204825521	-1.883296967	18.06842613	1.0
5	-29.50900078	0	0	-0.2982698679	-1.817362785	17.36892319	1.0
[RightHandMiddle4]
3	-28.3390007	0	0.0009999999311	0	0	0	1.0
4	-28.3390007	0	0.0009999999311	0	0	0	1.0
5	-28.3390007	0	0.0009999999311	0	0	0	1.0
[RightHandIndex1]
3	-91.08300018	-5.167999744	22.60099792	-0.5840800405	-2.692482948	15.6882925	1.0
4	-91.08300018	-5.167999744	22.60099792	-0.5464372635	-2.575114489	15.04124451	1.0
5	-91.08300018	-5.167999744	22.60099792	-0.7502741814	-2.637141228	16.27004814	1.0
[RightHandIndex2]
3	-36.76399994	0	0	-0.332662791	-2.134551287	13.67487812	1.0
4	-36.76399994	0	0	-0.3112926781	-2.079427004	13.09370041	1.0
5	-36.76399994	0	0	-0.2845899165	-2.007190228	12.33657455	1.0
[RightHandIndex3]
3	-28.83100128	0	0	-0.3662629724	-0.5991706848	18.41840363	1.0
4	-28.83100128	0	0	-0.3482145369	-0.5440513492	17.84153938	1.0
5	-28.83100128	0	0	-0.3256943822	-0.4714379311	17.08555031	1.0
[RightHandIndex4]
3	-23.92700005	0	0	0	0	0	1.0
4	-23.92700005	0	0	0	0	0	1.0
5	-23.92700005	0	0	0	0	0	1.0
[RightHandThumb1]
3	-24.64799881	-15.72700024	26.82600021	9.204236031	-5.162512779	-2.876391411	1.0
4	-24.64799881	-15.72700024	26.82600021	8.954754829	-4.62052536	-2.598646402	1.0
5	-24.64799881	-15.72700024	26.82600021	8.664428711	-3.977481842	-2.274311066	1.0
[RightHandThumb2]
3	-32.29800034	-18.64699936	18.64699936	4.420880795	-26.05472374	-15.71686268	1.0
4	-32.29800034	-18.64699936	18.64699936	4.926864147	-24.09653473	-15.7030201	1.0
5	-32.29800034	-18.64699936	18.64699936	4.720211506	-22.64332581	-14.73782635	1.0
[RightHandThumb3]
3	-26.52600098	-15.31399918	15.31399918	5.12136507	-12.43245983	-1.268075109	1.0
4	-26.52600098	-15.31399918	15.31399918	4.841858387	-12.24438763	-1.053099871	1.0
5	-26.52600098	-15.31399918	15.31399918	4.500665188	-11.80561447	-0.6550251245	1.0
[RightHandThumb4]
3	-19.54599953	-11.28499985	11.28499985	0	0	0	1.0
4	-19.54599953	-11.28499985	11.28499985	0	0	0	1.0
5	-19.54599953	-11.28499985	11.28499985	0	0	0	1.0
[LeftUpLeg]
3	82.07800293	-67.51699829	-15.99599934	-25.68287659	-2.648653746	-2.529661179	1.0
4	82.07800293	-67.51699829	-15.99599934	-30.08976746	-2.468883514	-3.118042707	1.0
5	82.07800293	-67.51699829	-15.99599934	-34.00376892	-1.391531348	-3.462005615	1.0
[LeftLeg]
3	0	-443.7049866	2.845999956	43.55440521	1.624803543	10.63195038	1.0
4	0	-443.7049866	2.845999956	30.56481934	3.359490633	8.534420013	1.0
5	0	-443.7049866	2.845999956	22.78956032	3.429297447	6.307219505	1.0
[LeftFoot]
3	0	-444.2789917	-29.8219986	1.28660202	18.41543007	2.448933363	1.0
4	0	-444.2789917	-29.8219986	-2.441227198	17.51083755	0.4826869071	1.0
5	0	-444.2789917	-29.8219986	-7.484619141	12.76231384	-4.048237801	1.0
[LeftToeBase]
3	0	-87.28699493	107.1060028	-1.517358422	0.06273922324	-4.112769127	1.0
4	0	-87.28699493	107.1060028	0.94728297	-5.20124122e-05	3.503814014e-06	1.0
5	0	-87.28699493	107.1060028	-0.2996223569	-0.00526371086	0.3427312076	1.0
[RightUpLeg]
3	-82.07800293	-67.51699829	-15.99599934	1.685620308	-8.66410923	6.700603485	1.0
4	-82.07800293	-67.51699829	-15.99599934	8.200839996	-11.69347572	3.919244766	1.0
5	-82.07800293	-67.51699829	-15.99599934	13.53534126	-13.55325127	1.316922426	1.0
[RightLeg]
3	0	-443.7049866	2.861999989	7.881144524	0.8601156473	0.5030212402	1.0
4	0	-443.7049866	2.861999989	5.305848598	5.22521019	2.632044315	1.0
5	0	-443.7049866	2.861999989	5.015351772	6.503962517	2.934622765	1.0
[RightFoot]
3	0	-444.2770081	-29.83799934	-10.32735825	-1.785070658	-4.755731106	1.0
4	0	-444.2770081	-29.83799934	-13.57364368	-0.8840681314	-5.14852047	1.0
5	0	-444.2770081	-29.83799934	-15.24164009	1.485430241	-4.629190445	1.0
[RightToeBase]
3	0	-87.28699493	107.1060028	-2.919342518	1.502028135e-05	1.397364599e-06	1.0
4	0	-87.28699493	107.1060028	-3.074332952	1.514221003e-05	-3.919912785e-07	1.0
5	0	-87.28699493	107.1060028	-8.078237534	0.003297936171	0.008283365518	1.0
[EndOfFile]
